<svg xmlns="http://www.w3.org/2000/svg" version="1.1" xmlns:xlink="http://www.w3.org/1999/xlink" xmlns:svgjs="http://svgjs.dev/svgjs" width="1000" height="1000" viewBox="0 0 1000 1000"><rect width="1000" height="1000" fill="#6936f5"></rect><g transform="matrix(0.7,0,0,0.7,149.57575757575756,282.1265587044535)"><svg viewBox="0 0 396 247" data-background-color="#6936f5" preserveAspectRatio="xMidYMid meet" height="623" width="1000" xmlns="http://www.w3.org/2000/svg" xmlns:xlink="http://www.w3.org/1999/xlink"><g id="tight-bounds" transform="matrix(1,0,0,1,0.2400000000000091,-0.09999999999999432)"><svg viewBox="0 0 395.52 247.2" height="247.2" width="395.52"><g><svg></svg></g><g><svg viewBox="0 0 395.52 247.2" height="247.2" width="395.52"><g mask="url(&quot;#b5814ca5-591d-4eed-9469-749519a809e6&quot;)"><g><path xmlns="http://www.w3.org/2000/svg" d="M197.011 0c35.707 0 63.123 9.663 82.25 28.99 19.077 19.376 28.615 47.293 28.615 83.748v0c0 43.198-11.112 76.407-33.334 99.629-22.223 23.222-54.059 34.833-95.509 34.833v0c-25.968 0-56.432-1.124-91.389-3.371v0l3.745-71.164-3.745-171.167zM193.265 191.393c11.736 0 20.675-4.694 26.818-14.083 6.093-9.339 9.139-24.745 9.139-46.219v0c0-18.228-1.248-32.585-3.746-43.073-2.497-10.487-6.492-18.053-11.985-22.697-5.493-4.594-13.109-6.892-22.847-6.892v0c-9.488 0-18.852 0.499-28.091 1.498v0l-2.622 105.248 0.749 23.221c14.982 1.998 25.844 2.996 32.585 2.997z" fill="#ffffff" fill-rule="nonzero" stroke="none" stroke-width="1" stroke-linecap="butt" stroke-linejoin="miter" stroke-miterlimit="10" stroke-dasharray="" stroke-dashoffset="0" font-family="none" font-weight="none" font-size="none" text-anchor="none" style="mix-blend-mode: normal" data-fill-palette-color="tertiary"></path></g></g><g transform="matrix(1,0,0,1,49.992947368421085,37.08)"><svg viewBox="0 0 295.5341052631578 173.04" height="173.04" width="295.5341052631578"><g><svg viewBox="0 0 295.5341052631578 173.04" height="173.04" width="295.5341052631578"><g><svg viewBox="0 0 295.53410526315787 173.04000000000002" height="173.04" width="295.5341052631578"><g><svg viewBox="0 0 295.53410526315787 173.04000000000002" height="173.04000000000002" width="295.53410526315787"><g id="textblocktransform"><svg viewBox="0 0 295.53410526315787 173.04000000000002" height="173.04000000000002" width="295.53410526315787" id="textblock"><g><svg viewBox="0 0 295.53410526315787 173.04000000000002" height="173.04000000000002" width="295.53410526315787"><g transform="matrix(1,0,0,1,0,0)"><svg width="295.53410526315787" viewBox="0 -35.54999923706055 65.9000015258789 39" height="173.04000000000002" data-palette-color="#ffffff"><path d="M17.6-32.55Q24.75-32.55 28.58-28.68 32.4-24.8 32.4-17.5L32.4-17.5Q32.4-8.85 27.95-4.2 23.5 0.45 15.2 0.45L15.2 0.45Q10 0.45 3 0L3 0 3.5-9.5 3-32.35 17.6-32.55ZM17.1-7Q19.45-7 20.68-8.88 21.9-10.75 21.9-15.05L21.9-15.05Q21.9-18.7 21.4-20.8 20.9-22.9 19.8-23.83 18.7-24.75 16.75-24.75L16.75-24.75Q14.85-24.75 13-24.55L13-24.55 12.65-10.5 12.75-7.4Q15.75-7 17.1-7L17.1-7ZM56.9-16.65Q60.05-15.75 61.47-13.98 62.9-12.2 62.9-9.35L62.9-9.35Q62.9-4.3 58.77-1.98 54.65 0.35 46.45 0.35L46.45 0.35Q41.9 0.35 35.7 0L35.7 0 36.2-9.5 35.7-32.35 50.15-32.4Q55.65-32.4 58.75-30.28 61.85-28.15 61.85-24.1L61.85-24.1Q61.85-21.6 60.57-19.68 59.3-17.75 56.9-16.65L56.9-16.65ZM51.65-22.65Q51.65-24.4 50.42-25.08 49.2-25.75 45.85-25.75L45.85-25.75 45.4-25.75 45.2-19.15 48.95-19Q50.35-19.45 51-20.3 51.65-21.15 51.65-22.65L51.65-22.65ZM48.35-6.25Q50.4-6.25 51.57-7.15 52.75-8.05 52.75-9.75L52.75-9.75Q52.75-10.9 52.07-11.6 51.4-12.3 49.9-12.8L49.9-12.8 45.05-12.7 45-10.5 45.15-6.45Q47.65-6.25 48.35-6.25L48.35-6.25Z" opacity="1" transform="matrix(1,0,0,1,0,0)" fill="#ffffff" class="undefined-text-0" data-fill-palette-color="primary" id="text-0"></path></svg></g></svg></g></svg></g></svg></g><g></g></svg></g></svg></g></svg></g></svg></g><defs><mask id="b5814ca5-591d-4eed-9469-749519a809e6"><rect width="395.52" height="247.2" fill="white"></rect><g transform="matrix(1,0,0,1,49.992947368421085,37.08)" id="clone"><svg viewBox="0 0 295.5341052631578 173.04" height="173.04" width="295.5341052631578"><g><svg viewBox="0 0 295.5341052631578 173.04" height="173.04" width="295.5341052631578"><g><svg viewBox="0 0 295.53410526315787 173.04000000000002" height="173.04" width="295.5341052631578"><g><svg viewBox="0 0 295.53410526315787 173.04000000000002" height="173.04000000000002" width="295.53410526315787"><g id="SvgjsG1041"><svg viewBox="0 0 295.53410526315787 173.04000000000002" height="173.04000000000002" width="295.53410526315787" id="SvgjsSvg1040"><g><svg viewBox="0 0 295.53410526315787 173.04000000000002" height="173.04000000000002" width="295.53410526315787"><g transform="matrix(1,0,0,1,0,0)"><svg width="295.53410526315787" viewBox="0 -35.54999923706055 65.9000015258789 39" height="173.04000000000002" data-palette-color="#ffffff"><path d="M17.6-32.55Q24.75-32.55 28.58-28.68 32.4-24.8 32.4-17.5L32.4-17.5Q32.4-8.85 27.95-4.2 23.5 0.45 15.2 0.45L15.2 0.45Q10 0.45 3 0L3 0 3.5-9.5 3-32.35 17.6-32.55ZM17.1-7Q19.45-7 20.68-8.88 21.9-10.75 21.9-15.05L21.9-15.05Q21.9-18.7 21.4-20.8 20.9-22.9 19.8-23.83 18.7-24.75 16.75-24.75L16.75-24.75Q14.85-24.75 13-24.55L13-24.55 12.65-10.5 12.75-7.4Q15.75-7 17.1-7L17.1-7ZM56.9-16.65Q60.05-15.75 61.47-13.98 62.9-12.2 62.9-9.35L62.9-9.35Q62.9-4.3 58.77-1.98 54.65 0.35 46.45 0.35L46.45 0.35Q41.9 0.35 35.7 0L35.7 0 36.2-9.5 35.7-32.35 50.15-32.4Q55.65-32.4 58.75-30.28 61.85-28.15 61.85-24.1L61.85-24.1Q61.85-21.6 60.57-19.68 59.3-17.75 56.9-16.65L56.9-16.65ZM51.65-22.65Q51.65-24.4 50.42-25.08 49.2-25.75 45.85-25.75L45.85-25.75 45.4-25.75 45.2-19.15 48.95-19Q50.35-19.45 51-20.3 51.65-21.15 51.65-22.65L51.65-22.65ZM48.35-6.25Q50.4-6.25 51.57-7.15 52.75-8.05 52.75-9.75L52.75-9.75Q52.75-10.9 52.07-11.6 51.4-12.3 49.9-12.8L49.9-12.8 45.05-12.7 45-10.5 45.15-6.45Q47.65-6.25 48.35-6.25L48.35-6.25Z" opacity="1" transform="matrix(1,0,0,1,0,0)" fill="#ffffff" class="undefined-text-0" data-fill-palette-color="primary" id="SvgjsPath1039" stroke-width="5" stroke="black" stroke-linejoin="round"></path></svg></g></svg></g></svg></g></svg></g><g></g></svg></g></svg></g></svg></g></mask></defs></svg><rect width="395.52" height="247.2" fill="none" stroke="none" visibility="hidden"></rect></g></svg></g></svg>