<svg xmlns="http://www.w3.org/2000/svg" version="1.1" xmlns:xlink="http://www.w3.org/1999/xlink" xmlns:svgjs="http://svgjs.dev/svgjs" 
width="1000" height="1000" viewBox="0 0 1000 1000">

<rect width="1000" height="1000" fill="#0c1d36">

</rect>
<g transform="matrix(0.7,0,0,0.7,150.4055712702862,66.00170980007323)">

<svg viewBox="0 0 199 247" data-background-color="#0c1d36" preserveAspectRatio="xMidYMid meet" height="1241" width="1000" xmlns="http://www.w3.org/2000/svg" xmlns:xlink="http://www.w3.org/1999/xlink">

<g id="tight-bounds" transform="matrix(1,0,0,1,-0.1152967825827318,-0.1000026713687987)"><svg viewBox="0 0 199.23059490084984 247.2" height="247.2" width="199.23059490084984"><g><svg viewBox="0 0 199.23059490084987 247.20000000000002" height="247.2" width="199.23059490084984"><g><svg viewBox="0 0 199.23059490084987 247.20000000000002" height="247.20000000000002" width="199.23059490084987"><g id="textblocktransform"><svg viewBox="0 0 199.23059490084987 247.20000000000002" height="247.20000000000002" width="199.23059490084987" id="textblock"><g><svg viewBox="0 0 199.23059490084987 247.20000000000002" height="247.20000000000002" width="199.23059490084987"><g transform="matrix(1,0,0,1,0,0)"><svg width="199.23059490084987" viewBox="4.300000190734863 -35 28.450000762939453 35.29999923706055" height="247.20000000000002" data-palette-color="#f9cc0b"><path d="M32.75-17.35L32.75-17.35Q32.75-12.85 31.35-9.53 29.95-6.2 27.4-4.03 24.85-1.85 21.3-0.78 17.75 0.3 13.5 0.3L13.5 0.3Q11.4 0.3 8.88 0.13 6.35-0.05 4.3-0.55L4.3-0.55 4.3-34.15Q6.35-34.65 8.88-34.83 11.4-35 13.5-35L13.5-35Q17.75-35 21.3-33.93 24.85-32.85 27.4-30.68 29.95-28.5 31.35-25.18 32.75-21.85 32.75-17.35ZM13.9-3.95L13.9-3.95Q20.8-3.95 24.2-7.48 27.6-11 27.6-17.35L27.6-17.35Q27.6-23.7 24.2-27.23 20.8-30.75 13.9-30.75L13.9-30.75Q11.85-30.75 10.73-30.7 9.6-30.65 9.15-30.6L9.15-30.6 9.15-4.1Q9.6-4.05 10.73-4 11.85-3.95 13.9-3.95Z" opacity="1" transform="matrix(1,0,0,1,0,0)" fill="#f9cc0b" class="undefined-text-0" data-fill-palette-color="primary" id="text-0"></path></svg></g></svg></g></svg></g></svg></g><g></g></svg></g><defs></defs></svg><rect width="199.23059490084984" height="247.2" fill="none" stroke="none" visibility="hidden"></rect></g></svg></g></svg>